<svg xmlns="http://www.w3.org/2000/svg" viewBox="0 0 64 64" role="img" aria-labelledby="title">
  <title id="title">OWU</title>
  <defs>
    <linearGradient id="surface" x1="8" y1="5" x2="58" y2="61" gradientUnits="userSpaceOnUse">
      <stop stop-color="#4F6BFF"/>
      <stop offset="0.52" stop-color="#6D4AFF"/>
      <stop offset="1" stop-color="#A855F7"/>
    </linearGradient>
    <radialGradient id="glow" cx="0" cy="0" r="1" gradientTransform="translate(15 10) rotate(47) scale(49)">
      <stop stop-color="#8FE7FF" stop-opacity="0.66"/>
      <stop offset="1" stop-color="#8FE7FF" stop-opacity="0"/>
    </radialGradient>
  </defs>
  <rect width="64" height="64" rx="16" fill="url(#surface)"/>
  <rect width="64" height="64" rx="16" fill="url(#glow)"/>
  <path d="m25.5 38.5-4.2 4.2a8.1 8.1 0 0 0 11.5 11.5l8.8-8.8a8.1 8.1 0 0 0 0-11.5" fill="none" stroke="#fff" stroke-width="5" stroke-linecap="round"/>
  <path d="m38.5 25.5 4.2-4.2a8.1 8.1 0 0 0-11.5-11.5l-8.8 8.8a8.1 8.1 0 0 0 0 11.5" fill="none" stroke="#fff" stroke-width="5" stroke-linecap="round"/>
  <path d="m24.5 39.5 15-15" fill="none" stroke="#DDF8FF" stroke-width="5" stroke-linecap="round"/>
  <path d="M15 3.5h34" stroke="#fff" stroke-opacity="0.24" stroke-width="2" stroke-linecap="round"/>
</svg>
